<svg className="Smail" width="276" height="305" viewBox="0 0 276 305" fill="none" xmlns="http://www.w3.org/2000/svg">
<path d="M231.229 161.327H1V303.604H231.229V161.327Z" fill="#002A95" stroke="#00B6C2" stroke-miterlimit="10" stroke-linecap="round" stroke-linejoin="round"/>
<path d="M1 161.327L110.143 80.3151C112.472 78.5871 115.65 78.5591 118.008 80.2481L231.229 161.327H1Z" fill="#002A95" stroke="#263238" stroke-miterlimit="10" stroke-linecap="round" stroke-linejoin="round"/>
<path d="M1 161.327L115.748 223.194L231.23 161.327V303.604H1V161.327Z" fill="#A131D6" stroke="#263238" stroke-miterlimit="10" stroke-linecap="round" stroke-linejoin="round"/>
<path d="M1 303.604L112.625 225.382C114.501 224.068 116.997 224.064 118.877 225.373L231.23 303.604" fill="#A131D6"/>
<path d="M1 303.604L112.625 225.382C114.501 224.068 116.997 224.064 118.877 225.373L231.23 303.604" stroke="#263238" stroke-miterlimit="10" stroke-linecap="round" stroke-linejoin="round"/>
<path d="M231.229 161.327H1V303.604H231.229V161.327Z" fill="#002A95" stroke="#00B6C2" stroke-miterlimit="10" stroke-linecap="round" stroke-linejoin="round"/>
<path d="M1 161.327L110.143 80.3151C112.472 78.5871 115.65 78.5591 118.008 80.2481L231.229 161.327H1Z" fill="#002A95" stroke="#263238" stroke-miterlimit="10" stroke-linecap="round" stroke-linejoin="round"/>
<path d="M1 161.327L115.748 223.194L231.23 161.327V303.604H1V161.327Z" fill="#A131D6" stroke="#263238" stroke-miterlimit="10" stroke-linecap="round" stroke-linejoin="round"/>
<path d="M1 303.604L112.625 225.382C114.501 224.068 116.997 224.064 118.877 225.373L231.23 303.604" fill="#A131D6"/>
<path d="M1 303.604L112.625 225.382C114.501 224.068 116.997 224.064 118.877 225.373L231.23 303.604" stroke="#263238" stroke-miterlimit="10" stroke-linecap="round" stroke-linejoin="round"/>
<path d="M274.187 1.84297C275.461 2.38819 275.937 0.60936 275.944 0C273.504 0.274899 274.779 0.825844 272.372 0.952984C272.406 1.41115 273.137 2.21981 271.933 2.58635C272.165 1.72729 271.507 2.15223 271.231 2.14307C271.809 2.48669 270.76 2.83719 270.648 3.25298C270.067 3.06169 270.271 1.71812 269.177 2.24615L269.948 3.50955C269.442 3.6218 269.41 2.56458 268.86 3.43395C268.784 2.5222 267.967 2.6207 268.866 1.62419C266.804 1.6345 267.377 3.63669 266.751 4.79814C266.792 4.65038 266.676 4.49231 266.71 4.34226C266.751 4.79814 266.359 5.07418 266.129 5.36282C265.269 5.60565 266.206 4.46138 265.778 4.2827L264.761 5.12C264.709 5.09938 264.687 5.08334 264.667 5.06043C264.524 5.42582 264.349 5.72936 264.016 5.52548C264.018 4.92528 263.823 4.45795 263.783 4.00322L263.352 5.632C263.157 5.17039 261.903 5.69614 262.453 4.82333L260.964 6.23677L260.179 5.58962C259.905 6.02488 260.022 6.1818 260.566 5.91262C259.861 6.17149 259.245 9.13352 258.255 7.42915C257.541 9.06251 256.88 9.18736 255.703 10.799C256.26 9.16216 253.605 11.0166 254.556 9.69134C253.548 9.95593 254.109 10.886 253.652 11.4736C252.838 11.5927 252.429 10.6695 252.764 9.92386L252.387 10.8184L252.268 10.6604L252.052 11.5607C251.078 11.6741 251.259 10.9238 250.524 11.3499L250.968 12.1208L250.189 12.0944C250.621 12.2616 250.359 12.7049 249.937 13.1402L249.817 12.9856L249.359 13.5754C249.564 12.7175 248.714 13.8595 248.552 13.1791C248.037 13.5445 248.033 13.5628 247.263 14.4001L247.82 14.7209C247.025 16.0461 247.173 14.0966 246.211 14.8182L246.733 15.2832C244.616 15.5158 244.909 17.6222 243.423 17.8799C243.876 17.2934 243.193 16.8215 243.315 16.9762C242.639 17.8627 241.171 18.9131 240.878 20.2658C239.881 19.8008 239.602 19.645 238.409 20.0814C237.807 20.6827 237.779 20.8339 237.966 21.441C237.079 21.6953 236.307 23.1282 235.776 22.6231C236.029 23.1694 235.137 23.024 235.131 23.6768L234.853 23.5222L235.384 23.9792C233.212 23.812 234.126 26.2254 232.079 26.2139L232.143 25.9138L231.862 26.5152C231.578 26.3605 231.639 26.0616 231.387 25.7569L229.117 27.5541L229.909 27.5563C229.497 28.0008 229.661 28.7544 228.856 28.9205C228.981 27.3983 228.123 29.5391 227.426 29.0912L227.691 28.4784C227.113 29.0946 227.113 29.0946 227.652 29.5471C227.014 30.4611 226.171 29.1095 225.949 30.3271L226.503 29.8644C226.943 30.0087 226.96 30.7658 226.594 31.0762C226.435 31.0773 225.967 31.0865 226.177 30.7772C225.727 31.5481 224.522 32.1701 224.437 32.6237C223.94 32.7863 223.705 32.3327 223.761 32.0303C222.83 33.7107 223.051 32.5 222.116 34.1803L221.859 33.8802L221.726 34.6419L220.464 34.6659L221.066 34.8057C220.67 35.2661 220.587 35.7174 219.904 36.0358L219.701 35.4345C218.668 36.817 217.541 36.0874 216.927 37.762C216.768 37.762 216.822 37.4619 216.852 37.3084C216.402 38.9773 215.249 37.3393 214.967 39.1823C214.893 38.9807 214.599 38.9269 214.52 38.7688L214.297 39.5145L213.768 38.9291L214.201 40.1307L213.31 39.8627L213.392 40.314C211.768 39.779 211.844 41.299 210.297 41.22L211.145 41.7881C210.82 44.9861 206.122 45.064 204.607 47.8691L204.067 47.2964L203.839 48.8152C202.89 48.869 203.635 48.0718 203.184 47.9458C202.533 49.1955 203.623 49.1187 202.691 50.4062C201.735 50.6284 202.457 49.8117 202.513 49.3478C201.771 50.6765 200.574 52.539 199.514 52.9983C199.577 53.0865 199.636 53.2262 199.708 53.2182C199.285 54.1654 198.115 54.8641 197.395 55.6797C197.141 55.4185 197.285 55.186 197.417 54.9409C197.109 55.1906 196.549 55.4094 196.593 55.895L196.367 55.1482C195.682 55.659 195.03 57.2294 194.296 56.8342C194.596 56.9637 195.013 57.3852 194.484 57.8811C193.294 57.3726 193.5 59.6302 192.204 60.0357C192.082 59.7482 192.627 59.0953 192.449 59.2579C191.803 59.4676 191.868 60.2132 191.798 60.826L191.537 60.3942C191.081 61.1891 190.66 62.0138 190.22 62.8202C189.031 62.3311 188.644 64.8189 188.094 64.1122C187.412 64.7972 189.046 63.8591 188.333 64.8498C187.728 64.7639 187.781 65.8234 187.21 65.2771L187.227 65.1213L186.7 65.7902L186.47 64.8957C186.103 65.5474 186.335 66.442 186.764 66.8497C185.965 67.0857 185.573 68.0421 184.817 67.8256L184.846 67.5141C183.771 69.1543 181.015 68.5518 181.005 70.5299C180.842 70.546 180.7 70.412 180.868 70.239L180.016 71.1026L179.757 70.5196C179.538 71.2012 179.323 71.885 179.129 72.5848L178.839 72.3168C177.855 73.2182 176.673 74.918 175.664 76.2834L175.681 75.9741C174.958 77.7621 174.22 77.0989 173.682 78.4012C173.631 78.3004 173.628 78.2409 173.643 78.1893L172.863 79.1274L172.734 78.6853C172.821 79.8971 170.174 79.9693 171.107 79.9876C171.071 80.6073 170.861 81.5568 171.15 81.968C170.32 83.0046 170.534 81.9039 169.731 82.3266C169.078 83.0379 169.494 83.5682 168.398 84.3723L168.099 84.1111C167.773 84.6288 167.762 85.0962 167.277 85.7937L167.284 85.4833C167.083 87.0628 165.263 86.1293 165.974 88.017C165.352 88.277 164.861 89.2849 164.254 88.7684C163.588 90.4223 162.939 91.6078 162.127 93.1301C160.898 92.5769 161.964 93.4657 160.71 93.8368L161.324 94.1862C159.859 96.1047 156.805 97.3395 155.417 99.6326L154.797 99.289L155.105 100.158C153.101 102.264 150.63 105.081 149.239 106.908C149.077 107.707 149.141 109.117 148.234 109.942L148.226 109.787C147.361 111.701 146.342 113.644 144.695 115.266C144.528 114.99 144.225 115.059 144.212 114.75C144.551 115.611 143.477 115.853 143.177 116.237L143.949 116.06C144.137 116.947 143.064 117.349 142.442 117.337L142.487 118.574C142.389 118.59 142.238 118.617 142.135 118.566L142.344 118.913L141.251 118.855C141.268 119.164 140.677 120.382 141.197 121.206C140.884 121.124 140.152 121.78 140.419 121.083L138.123 124.016L138.724 123.71C139.359 124.023 139.118 125.182 138.526 125.489C138.465 124.564 137.713 124.911 137.095 124.907C137.136 125.526 137.866 124.871 138.045 125.294C138.093 126.069 137.555 127.306 137.098 127.419L137.068 126.958C136.812 127.806 135.552 127.498 135.13 128.234C135.189 129.161 134.43 129.356 135.548 129.853C135.148 130.894 134.613 129.78 134.313 130.015C134.519 130.743 133.347 131.828 132.711 131.676C133.882 133.079 130.537 133.823 131.706 134.782L130.501 135.114C130.829 135.342 131.504 135.949 131.254 136.649C130.515 137.01 130.003 136.519 129.539 136.489L130.57 137.631C127.109 140.196 125.139 145.104 121.8 148.206C121.079 150.025 120.428 152.452 119.085 154.293L119.047 153.986L117.539 155.723L118.974 154.647C118.874 155.151 118.93 155.616 118.667 156.013C117.763 156.924 116.723 157.997 115.797 159.216C114.903 160.448 114.124 161.825 113.708 163.321C114.257 165.824 111.725 163.754 111.9 165.969C111.84 165.756 111.654 165.592 111.576 165.388C111.329 166.402 111.136 167.182 110.99 167.986C110.917 168.388 110.857 168.797 110.807 169.244C110.787 169.468 110.765 169.701 110.743 169.946C110.714 170.104 110.769 170.117 110.806 170.168L110.926 170.322C109.491 169.423 110.844 170.543 110.111 170.03L110.654 170.471C110.261 170.311 110.058 170.365 109.704 169.991C109.898 170.228 110.083 170.484 110.258 170.76L109.749 170.227C109.656 170.283 109.749 171.326 108.955 169.802C109.189 170.483 109.126 170.99 109.005 171.254C108.944 171.387 108.868 171.46 108.797 171.483C108.723 171.474 108.665 171.579 108.594 171.276C108.601 172.282 108.485 172.201 108.402 172.185C108.386 171.678 108.382 171.189 108.391 170.717C108.341 171.091 108.053 172.512 108.072 171.609C108.091 171.508 108.104 171.441 108.127 171.314C107.999 171.431 108.079 170.773 107.743 171.637C107.641 171.418 107.744 170.791 108.1 169.945C107.809 170.74 107.78 170.612 107.851 170.325C107.921 170.034 108.108 169.61 108.108 169.61C108.108 169.61 108.109 169.53 108.11 169.387C108.114 169.324 108.12 169.255 108.133 169.19L108.157 169.096L108.161 169.085C108.17 169.093 108.163 169.077 108.112 169L107.886 168.648C107.733 168.411 107.578 168.168 107.418 167.921C104.857 163.953 101.305 158.605 97.3423 153.084C89.4155 142.043 79.844 130.31 73.2632 127.545C72.4618 127.593 71.4514 126.939 71.0095 127.728C70.3024 127.176 71.0967 126.196 70.4243 126.438C70.7061 127.63 68.7259 127.116 68.6602 128.504L68.1013 128.003C67.6056 128.149 69.1356 128.504 68.2888 128.844L69.4843 128.31C69.6611 128.896 69.6217 129.303 69.3744 129.711C70.1137 129.888 71.7774 129.224 71.9005 130.715L71.6258 130.46C72.285 131.309 71.3093 131.449 71.2615 131.747L71.1337 131.547L71.1134 132.638C71.08 131.843 69.5536 131.49 69.9585 131.932C70.3956 133.171 70.0289 131.491 70.7145 132.189C71.1134 132.638 70.4422 132.876 70.0922 133.072L70.7491 133.918C70.2272 134.214 70.3681 133.323 70.1006 134.013L71.4096 134.767C70.2869 135.797 72.8655 135.568 72.0271 136.846C71.1695 136.249 71.6508 137.194 71.1516 137.335L72.5944 139.226C72.5478 139.524 71.8431 138.971 72.1154 139.223C72.0247 139.815 72.8476 139.621 72.9766 139.824C72.7484 140.218 74.0144 141.26 73.1366 141.754C73.5033 143.434 74.5937 141.614 74.9807 143.15C74.5841 143.644 74.1721 142.257 74.0288 143.143L75.1156 144.291C74.7872 144.337 74.1148 144.581 73.8878 144.033C75.6435 147.905 74.2676 151.506 77.1711 154.2C76.8773 155.038 76.5393 154.146 75.9158 154.092C78.3308 155.841 76.8474 158.156 78.289 160.046L78.8145 159.755C79.168 163.465 82.3939 166.111 83.9036 169.583L83.9967 168.991C84.7766 169.096 85.3057 169.741 85.885 170.096C85.6867 170.337 84.5593 170.429 85.3917 171.18C85.4407 170.881 85.3643 170.385 85.6867 170.337C85.9614 172.071 87.157 174.269 88.5854 176.623C89.3092 177.793 90.0664 179.019 90.8164 180.232C91.5091 181.306 92.1971 182.376 92.8731 183.425C93.5646 184.515 94.2394 185.602 94.8867 186.681C98.8436 191.878 102.664 197.589 106.662 203.569C107.664 205.064 108.665 206.559 109.661 208.048L110.413 209.165L110.789 209.722L110.978 210C111.034 209.979 111.082 209.839 111.135 209.764C111.547 209.034 111.957 208.307 112.367 207.582C114.006 204.658 115.63 201.664 117.16 198.643C116.222 200.479 116.087 197.62 116.889 196.854C118.346 196.795 119.217 194.965 119.949 193.182C120.705 191.354 121.323 189.569 122.884 188.482C123.673 186.599 124.534 184.98 125.461 183.387C125.929 182.594 126.383 181.819 126.896 181.042L127.651 179.877L128.028 179.294L128.205 179.021L128.308 178.878C129.404 177.351 130.359 175.795 130.424 173.726L131.087 173.992C131.647 173.658 131.287 173.299 131.511 172.757L131.681 172.862C132.596 171.786 132.783 169.994 133.472 169.464L132.793 169.045C133.14 168.299 133.542 168.961 133.571 168.024L133.912 168.234L133.748 167.034C134.931 167.778 135.034 165.099 135.927 164.836C136.251 163.807 136.756 161.785 137.827 160.536C138.609 160.626 139.615 158.928 140.575 158.026C141.64 155.816 143.363 152.776 145.231 150.258L144.416 149.851L144.799 149.132C144.964 149.242 145.113 149.201 145.131 149.354C146.357 149.339 145.862 147.606 146.762 147.375C145.836 147.308 146.347 147.791 146.08 148.173C145.351 148.52 144.938 147.539 145.806 147.002L145.967 147.118L145.887 146.356C146.534 146.656 147.115 146.349 147.757 146.646C148.4 145.472 148.702 144.344 149.069 143.238C149.46 142.149 149.91 141.081 150.822 140.018C151.336 140.662 151.759 138.262 152.616 139.435C153.099 137.786 151.52 139.085 151.117 137.951C151.396 137.578 151.346 136.974 151.823 137.169C151.982 137.523 152.743 137.291 152.639 137.669L153.167 136.691C153.315 136.659 153.341 136.962 153.35 137.111C153.936 134.815 156.337 134.254 156.787 132.147C156.454 131.759 156.222 132.742 155.884 132.355C156.17 130.12 157.634 131.327 158.141 129.397L158.487 130.085C158.446 129.332 158.109 128.796 159.155 128.268C159.939 128.561 159.213 129.323 159.247 129.921C159.677 129.374 160.517 127.832 159.595 127.873C159.856 127.051 160.633 127.194 161.076 126.948C160.918 126.828 160.175 127.29 160.145 126.69C161.182 126.014 162.179 124.58 163.039 123.49C163.198 123.61 163.505 123.697 163.517 123.848C163.288 122.367 164.716 123.449 165.41 122.084C166.443 120.324 167.562 118.26 168.769 116.256C169.963 114.242 171.218 112.271 172.561 110.741C172.224 109.428 172.971 108.378 173.559 107.21L174.786 107.916C174.882 107.545 174.967 107.164 175.075 106.799C175.693 106.704 174.771 107.599 175.687 107.303L175.232 106.478C175.695 106.704 177.234 104.513 176.922 106.513L179.544 103.258C180.157 102.563 178.938 102.143 179.858 101.551C180.319 101.632 179.854 102.005 180.312 102.238C183.066 100.471 180.351 97.8492 182.66 95.9879L182.656 96.2914C182.664 95.6855 183.286 94.9891 183.133 94.8585C181.774 94.2904 183.421 95.7244 182.207 95.9043C181.306 95.1265 182.379 94.6627 181.623 94.161C182.383 93.8918 182.105 93.1816 182.433 92.6914C183.678 92.3821 184.192 90.9618 185.422 90.9584C185.444 90.3559 184.878 89.2208 185.528 88.3858C186.753 88.3824 186.113 89.0696 187.056 88.5003L186.619 87.9471C187.252 87.3698 187.318 87.5909 187.554 87.8154C188.165 87.1465 187.299 86.6574 188.383 86.0698L188.499 86.9666C188.837 86.166 189.151 85.9793 189.956 85.1294C190.249 85.3963 189.925 85.7353 189.612 85.9243C190.823 86.0801 189.971 84.8247 190.281 84.6334C189.982 84.52 189.349 85.0492 189.076 84.3242C189.55 83.9622 189.149 82.7996 190.054 82.9943L190.16 83.8912C190.528 82.6358 189.91 82.8592 191.019 81.9715C191.011 82.0608 191.168 82.141 191.26 82.2555C191.131 81.0208 192.553 80.6921 193.47 79.7666L193.447 80.0667C193.619 79.5306 193.336 78.9258 193.564 78.7471C192.758 79.045 192.738 78.7666 192.179 78.3955C193.721 78.3921 192.17 76.446 193.773 75.6843C194.058 75.9546 194.169 76.5468 193.548 76.6064C194.079 77.7564 194.799 78.4379 194.566 79.5054C194.765 78.8857 195.119 78.2535 195.396 78.6784L194.686 77.8468C194.911 77.5571 195.158 77.3841 195.344 77.1779C194.921 76.6224 193.976 77.0118 194.204 76.0921C194.582 75.154 195.406 76.4254 195.13 76.0016C195.688 74.7451 194.602 74.8482 195.737 74.1334C195.72 74.2858 195.697 74.5904 195.545 74.6053C196.495 74.2102 196.907 72.815 198.088 73.4611C198.221 73.7497 198.504 74.0223 198.185 74.2056L198.042 74.067C198.09 75.3178 198.363 73.5893 198.948 74.1048C198.751 73.6695 199.559 72.9834 199.984 72.6833L199.249 72.2996C198.723 69.3227 200.388 73.4026 201.43 71.7968C201.831 70.5529 200.954 71.9892 201.025 71.0763C201.685 70.5666 202.41 70.79 202.983 69.711C203.455 69.68 204.249 69.4716 204.965 70.018C205.195 69.2597 206.795 68.7019 206.424 67.8314C204.997 68.2265 206.273 69.3341 204.389 69.609L204.012 68.7454C204.746 68.0547 205.307 66.8406 206.027 66.5508C205.801 66.5393 205.589 66.4351 205.51 66.2484C206.258 65.0022 205.89 64.1248 207.059 63.2978C207.785 63.6976 207.115 64.1924 206.755 64.6666C207.858 64.4455 207.444 64.0229 208.607 63.1947C209.18 63.6071 207.923 63.8407 208.324 64.4123L209.23 63.1569C209.257 63.189 209.297 63.2165 209.337 63.252C208.62 62.3116 210.229 62.4743 210.624 61.5637C212.182 59.9647 211.256 58.6612 211.429 57.1366C211.901 57.1149 212.192 57.2489 212.307 57.5444C211.53 57.5788 211.907 57.7918 211.997 58.1331C212.434 57.5077 214.025 57.7483 214.065 58.3588C214.675 57.2924 213.302 58.2431 213.559 57.486L214.795 56.391C214.214 56.1195 213.703 56.4368 213.98 55.5308C214.376 54.9168 214.711 54.7553 215.415 54.1265C215.532 54.4209 216.291 54.5388 215.76 55.005C216.25 54.8424 216.779 54.367 216.549 53.7794C215.415 54.1265 217.384 52.2503 216.156 52.1507L217.29 51.8047C217.113 51.9605 217.383 52.2514 217.05 52.4118C217.919 52.8287 217.464 51.6478 217.66 51.3374C218.047 51.2045 218.78 50.6021 219.091 50.7899C219.141 50.3902 219.855 49.9721 220.297 50.1874C220.515 49.7258 219.896 49.751 219.785 49.4509L221.02 48.3548C221.446 48.6423 222.549 49.5105 222.508 49.8129C222.618 49.0569 221.599 48.6331 222.306 48.0088C222.618 49.0569 223.735 47.6629 224.008 49.0099C224.905 49.1302 225.976 48.0421 226.427 47.3033C226.261 46.411 225.44 47.616 224.912 47.0272C226.459 45.2232 225.012 43.5979 226.575 42.6804L226.083 42.8316C226.57 41.7789 226.55 41.9301 226.545 41.0298C227.017 41.921 229.329 42.0458 230.498 40.6885C230.262 40.2372 229.096 40.7034 228.76 39.9554L229.535 39.0448C229.655 39.0425 229.673 39.2464 229.648 39.4389C230.191 38.4687 232.01 38.999 231.43 37.975L233.235 38.2625L232.489 38.1159C232.259 37.6715 233.038 36.7575 233.089 36.4551C233.613 35.2432 234.235 35.2421 235.163 35.2363C234.725 35.0897 233.693 34.7931 234.296 34.0325C235.384 35.1653 236.224 33.1185 236.774 33.729C237.055 33.4587 237.92 33.3636 237.498 32.8608L238.133 33.6144C237.245 32.5618 238.363 31.6787 239.014 30.7899C240.12 32.3041 239.816 29.9033 241.355 30.8231C240.632 29.767 242.465 29.1977 241.868 28.2848C242.459 27.6915 243.207 28.6078 243.645 28.7648L243.615 28.1646C244.342 28.3226 245.587 27.3616 246.57 27.0512L246.464 25.663L247.053 25.8256C246.963 25.5255 247.396 24.9299 246.775 24.9173L247.173 24.6584C246.371 23.7318 247.442 23.9792 247.802 22.977C248.099 22.9793 248.253 23.2324 248.21 23.4867C248.572 23.1889 248.843 23.7811 249.318 23.9197C248.848 23.9002 249.144 21.2279 247.79 21.6243C247.385 21.3116 247.712 20.5728 248.218 20.441L249.178 21.0745L248.825 19.8649C249.278 19.2853 249.991 19.6095 250.53 19.3311C250.112 19.763 250.921 21.7434 252.099 20.7423C251.566 21.3631 251.669 22.0698 251.498 22.5062C251.775 22.3356 251.97 22.3138 251.899 22.9735C252.603 21.9576 251.757 22.2187 252.586 21.3597C253.195 22.1305 253.666 22.1523 254.698 21.7457L253.611 21.7021C253.558 21.5899 253.542 21.4914 253.549 21.4112C253.248 21.5189 253.081 21.4582 252.778 21.2176C252.966 21.0756 253.033 19.4342 253.587 19.7515C251.63 19.3747 254.419 17.5374 253.206 17.3358C253.121 17.0357 253.732 16.4607 254.127 16.7746C253.847 17.9647 255.457 17.1331 255.788 17.7493C255.887 17.3015 254.693 17.7024 254.834 17.1056C255.251 16.6772 255.994 16.8548 256.457 16.8754L256.388 17.1709L257.392 16.9178C257.184 16.455 256.149 16.8593 256.636 16.1297C256.946 16.1423 257.434 15.4127 257.674 15.7231C257.81 16.4848 258.632 16.9716 258.185 17.5546C258.601 17.1228 259.999 15.8308 258.794 15.6269L259.37 15.1985C258.749 15.171 257.28 15.4069 258.302 14.3956L258.423 14.5513L258.704 13.3578L259.376 13.4643C259.202 13.2845 259.173 13.0119 259.47 12.7908C259.74 12.9523 260.087 12.8183 260.326 13.1333C261.123 12.4151 260.728 12.0933 260.648 11.7886C261.067 11.3545 261.378 11.3682 261.54 11.9833C262.262 11.5595 263.326 10.5939 264.107 10.6397C264.688 9.62834 263.793 10.6226 263.867 9.72226C265.743 10.4427 267.175 7.99384 268.459 6.72587C267.103 5.88055 268.737 6.29405 268.115 5.04784C268.114 5.64689 270.216 4.88863 269.242 6.17722L269.902 5.46935C270.952 5.69729 269.047 6.91486 270.559 7.17143C271.377 6.47617 270.875 4.78439 272.233 4.43046C272.579 5.506 272.779 3.56224 273.278 4.65267C273.316 5.10855 272.964 5.23454 272.735 5.5186L273.044 5.54151C275.102 4.3331 272.778 4.16129 273.288 2.84292C274.339 1.85672 274.72 2.79252 275.104 3.12584C275.412 3.14874 275.878 2.57718 276 2.13161C275.724 3.16363 274.297 2.60696 274.187 1.84297Z" fill="#4EF440"/>
</svg>
