<svg className="Fmail" width="232" height="283" viewBox="0 0 232 283" fill="none" xmlns="http://www.w3.org/2000/svg">
<path d="M231.229 139.327H1V281.604H231.229V139.327Z" fill="#002A95" stroke="#00B6C2" stroke-miterlimit="10" stroke-linecap="round" stroke-linejoin="round"/>
<path d="M1 139.327L110.143 58.3151C112.472 56.5871 115.65 56.5591 118.008 58.2481L231.229 139.327H1Z" fill="#002A95" stroke="#263238" stroke-miterlimit="10" stroke-linecap="round" stroke-linejoin="round"/>
<path d="M1 139.327L115.748 201.194L231.23 139.327V281.604H1V139.327Z" fill="#A131D6" stroke="#263238" stroke-miterlimit="10" stroke-linecap="round" stroke-linejoin="round"/>
<path d="M1 281.604L112.625 203.382C114.501 202.068 116.997 202.064 118.877 203.373L231.23 281.604" fill="#A131D6"/>
<path d="M1 281.604L112.625 203.382C114.501 202.068 116.997 202.064 118.877 203.373L231.23 281.604" stroke="#263238" stroke-miterlimit="10" stroke-linecap="round" stroke-linejoin="round"/>
<path d="M153.218 50.2327C151.899 49.3434 151.78 51.9194 151.116 50.9877C150.474 51.5223 152.094 51.0013 151.453 51.859C150.802 51.5812 150.982 52.7469 150.315 51.9813V51.8167L149.834 52.3815L149.488 51.3426C149.176 51.9375 149.524 52.9764 150.023 53.5487C149.206 53.5608 148.901 54.4788 148.076 54.0138L148.071 53.6846C147.116 55.1296 144.158 53.6499 144.385 55.8076C144.217 55.7759 144.052 55.5872 144.208 55.4498L143.417 56.1353L143.075 55.4211L142.643 57.4656L142.307 57.0851C141.349 57.7374 140.259 59.1794 139.318 60.321L139.307 59.9948C138.712 61.6815 137.864 60.7317 137.418 61.9563C137.354 61.831 137.346 61.766 137.357 61.7147L136.619 62.4697L136.44 61.9533C136.647 63.2851 133.849 62.5029 134.841 62.8245C134.862 63.4784 134.73 64.4327 135.073 64.9702C134.29 65.8158 134.414 64.7014 133.604 64.8932C132.974 65.4398 133.484 66.1676 132.359 66.6342L132.018 66.2552C131.705 66.6901 131.727 67.1793 131.256 67.7486L131.241 67.4224C131.136 69.0215 129.131 67.4194 130.033 69.6663C129.39 69.7312 128.944 70.6372 128.258 69.8807C127.675 71.4148 127.074 72.4567 126.323 73.8021C124.974 72.7889 126.174 74.1041 124.869 74.0694L125.547 74.6538C124.161 76.2302 120.9 76.3857 119.532 78.2898L118.848 77.704L119.223 78.7262C117.169 80.1999 114.66 82.2581 113.287 83.6971C113.173 84.4959 113.261 85.9621 112.316 86.4845L112.303 86.3199C111.429 87.9809 110.388 89.6177 108.661 90.6793C108.474 90.3289 108.148 90.2836 108.125 89.9575C108.487 90.9058 107.537 90.8454 107.146 91.0568C106.543 90.6279 106.799 88.9413 105.681 89.8095L105.984 88.5592C105.597 88.8899 104.67 89.5664 104.127 89.2871C104.163 88.5154 104.898 88.0051 105.167 87.5294L103.54 88.5502C102.89 84.9021 99.1424 82.7835 98.1102 79.1113C96.8018 78.2506 94.8752 77.414 93.8864 75.9146L94.197 75.898L93.4003 74.24L93.6134 75.7742C93.1932 75.6353 92.7221 75.6564 92.4925 75.3605C91.7918 73.3839 90.7505 70.8486 88.4894 69.6768C85.8531 69.9592 89.2561 67.6248 87.106 67.5629C87.3386 67.5251 87.5996 67.356 87.8352 67.2986C86.2522 66.5784 85.406 66.1767 83.403 65.8143C85.139 64.5308 82.6857 65.0638 83.631 64.4236L82.8838 64.9023C83.0533 64.2817 82.6497 63.5267 83.2004 63.2035L81.9175 63.3923L82.5522 62.7551C81.994 62.0076 80.1245 60.9793 81.1778 59.418C78.6226 58.58 76.633 55.4996 75.0336 53.0715C74.2143 53.2361 73.6247 52.6291 73.143 52.1731L73.5091 50.9424C72.8279 50.642 71.3395 50.9636 71.4641 50.044C71.5616 49.967 71.6456 49.9292 71.7221 49.9232C71.116 49.5427 71.1355 48.682 69.9696 48.827C69.5315 48.2199 69.503 47.2989 70.4137 46.8368C68.9958 47.9225 69.6095 45.4567 69.6095 45.4567C69.6095 45.4567 68.3237 43.4272 66.1915 40.371C64.0429 37.3208 61.0676 33.2409 57.8357 29.0522C51.1483 20.7337 43.6581 12.0678 37.1328 10.8689C36.2325 11.0894 35.2767 10.6847 34.585 11.5242C33.9384 11.1483 35.0712 10.058 34.2625 10.425C34.2745 11.4955 32.1949 11.4155 31.7733 12.7488L31.2751 12.3849C30.6854 12.6235 32.3044 12.6522 31.2751 13.149L32.741 12.3955C32.7905 12.9164 32.645 13.3136 32.2699 13.7545C33.0501 13.7711 35.0607 12.782 34.8266 14.1773L34.585 13.9931C35.1057 14.662 33.9909 15.0078 33.8648 15.3052L33.7718 15.1406L33.4837 16.1946C33.6413 15.4381 32.0328 15.423 32.3734 15.7628C32.558 16.8651 32.5595 15.3234 33.1491 15.8488C33.4822 16.1961 32.681 16.5706 32.2459 16.8349L32.771 17.5128C32.1228 17.913 32.4919 17.0176 32.0298 17.7454L33.2977 18.1923C31.8138 19.4426 34.7141 18.6453 33.4882 20.0798C32.6825 19.6887 32.9916 20.5041 32.4094 20.7548L33.5617 22.2859C33.4417 22.5909 32.795 22.2059 33.0366 22.3931C32.801 22.9986 33.7493 22.6181 33.8453 22.7872C33.4957 23.2372 34.6735 23.9499 33.6052 24.6415C33.6698 26.1922 35.2467 24.1462 35.3608 25.549C34.8221 26.1303 34.648 24.8771 34.3104 25.7785L35.2798 26.6316C34.9077 26.7585 34.1154 27.1662 33.9743 26.686C35.1297 30.0352 32.9285 33.9672 35.6098 35.9045C35.1312 36.8195 34.9286 36.0162 34.2534 36.1249C36.5611 37.2514 34.549 39.9226 35.8169 41.4069L36.4426 40.972C36.2115 44.5612 39.3189 46.2902 40.4082 49.3313L40.6032 48.7092C41.436 48.5869 41.9101 49.0791 42.4833 49.2648C42.2312 49.5638 40.9859 49.9927 41.7781 50.4955C41.8726 50.1859 41.8726 49.7073 42.2297 49.5653C42.3122 52.8511 46.1698 56.8525 48.1309 60.8253C52.2405 64.9883 55.2084 70.7218 59.2221 74.8169C58.6159 74.1902 60.2784 73.2449 60.3714 74.0301C59.117 77.488 62.8036 76.0264 62.3594 78.8395C65.3063 80.6681 65.1803 84.739 69.0379 85.4487L68.4047 86.0919C68.4002 86.714 68.9493 86.3924 69.3349 86.6974L69.1384 86.8575C69.6365 87.9492 71.227 88.3826 71.35 89.1542L72.1332 88.5079C72.6494 88.9564 71.7851 89.2946 72.6809 89.4245L72.2893 89.7506L73.5467 89.7098C72.1738 90.8408 74.72 91.2304 74.4859 92.1726C75.3081 92.6135 76.9916 93.3353 77.6158 94.5675C77.1056 95.3678 78.2039 96.5773 78.5611 97.6629C80.093 99.0114 82.2221 100.992 83.7526 103.091L84.5673 102.271L85.0804 102.714C84.8884 102.878 84.8524 103.035 84.6933 103.045C84.0886 104.319 86.0422 103.911 85.8171 104.861C86.3498 103.899 85.6161 104.404 85.376 104.103C85.403 103.324 86.5748 102.952 86.6649 103.889L86.4698 104.05L87.2576 104.011C86.6379 104.666 86.6454 105.291 86.0347 105.944C87.6987 107.427 89.8503 107.475 91.0941 109.442C91.0866 109.447 91.0881 109.45 91.0806 109.454C88.6484 111.221 86.7549 114.004 83.9011 115.303C83.0609 116.832 82.2791 119.008 80.7607 120.299L80.7277 119.973L79.0307 121.09L80.6287 120.61C80.5041 121.077 80.5506 121.569 80.2521 121.861C78.234 122.942 75.5662 124.418 74.5459 127.082C75.0396 129.829 72.3568 126.667 72.4543 128.963C72.3973 128.725 72.2008 128.48 72.1243 128.242C71.4971 130.064 71.143 131.04 70.9314 133.225C69.4505 131.648 70.2082 134.129 69.461 133.261L70.0236 133.952C69.3634 133.898 68.6072 134.475 68.2231 133.96L68.5292 135.272L67.809 134.733C67.0723 135.473 66.1615 137.643 64.4285 136.862C63.7368 139.677 60.8455 142.573 58.4823 144.82C58.7479 145.644 58.1867 146.41 57.7681 147.026L56.4433 146.94C56.2107 147.73 56.7268 149.209 55.7516 149.303C55.6585 149.22 55.609 149.14 55.594 149.063C55.2714 149.789 54.3682 149.982 54.6653 151.163C54.0861 151.769 53.1258 152.029 52.5257 151.195C53.8325 152.389 51.2008 152.408 51.2008 152.408C51.2008 152.408 49.2982 154.339 46.4519 157.466C45.0295 159.029 43.3715 160.892 41.5995 162.959C39.8335 165.036 38.0135 167.397 36.171 169.83C28.7544 179.465 21.9979 191.741 23.1233 198.876C23.6529 199.652 23.5839 200.785 24.6687 201.035C24.5247 201.846 23.0272 201.299 23.6844 201.896C24.7482 201.352 25.4174 203.386 26.8909 203.142L26.7153 203.791C27.1669 204.238 26.6028 202.681 27.4685 203.425L26.1932 202.387C26.6913 202.086 27.1354 202.035 27.7041 202.187C27.437 201.432 25.755 199.953 27.2164 199.507L27.1189 199.832C27.5975 199.003 28.3253 199.928 28.6598 199.912L28.5323 200.079L29.6621 199.869C28.8669 200.069 29.4221 201.635 29.6321 201.147C30.6389 200.461 29.137 201.171 29.4401 200.356C29.6606 199.871 30.3073 200.48 30.7169 200.78L31.1881 199.963C31.8032 200.415 30.8085 200.457 31.6742 200.579L31.6607 199.143C33.3772 200.042 31.6097 197.547 33.4102 198.121C33.3142 199.084 33.9879 198.424 34.426 198.889L35.4853 197.102C35.8139 197.093 35.6699 197.894 35.7644 197.577C36.4171 197.558 35.7359 196.777 35.8634 196.609C36.384 196.756 36.7231 195.321 37.7389 196.111C39.2574 195.469 36.7637 194.693 38.1246 194.053C38.8583 194.366 37.6654 195.003 38.6587 194.998L39.2198 193.731C39.4539 194.051 40.0856 194.678 39.6535 194.992C42.6333 192.612 47.0671 193.454 48.1654 190.154C49.1782 190.331 48.464 190.797 48.7581 191.43C49.1602 188.742 52.3801 189.941 53.5279 188.256L52.9443 187.764C56.5543 186.947 57.5146 183.373 60.2439 181.433L59.5927 181.405C59.2851 180.599 59.6602 179.984 59.7127 179.352C60.0638 179.528 60.751 180.665 61.0781 179.735C60.742 179.716 60.2844 179.852 60.0623 179.527C63.3392 178.597 66.6297 173.751 70.2187 170.819C73.6292 165.661 79.1372 161.547 82.6437 156.598C82.0976 157.345 80.9242 155.816 81.7 155.565C85.3385 156.201 83.4615 152.717 86.3753 152.672C87.9252 149.33 92.0649 148.787 92.3905 144.685L93.1047 145.237C93.7334 145.14 93.3538 144.625 93.6254 144.175L93.8054 144.353C94.8542 143.659 95.1408 141.94 95.936 141.712L95.2113 141.001C95.6329 140.406 96.0471 141.246 96.1116 140.307L96.4762 140.663L96.3396 139.376C97.6045 140.628 97.813 137.952 98.7973 138.06C99.1874 137.151 99.8086 135.31 101.024 134.495C101.876 134.913 103.035 133.611 104.116 133.098C105.041 131.837 106.248 130.182 107.641 128.686C108.991 129.702 110.259 130.762 111.164 131.905C112.637 131.47 113.413 132.193 114.373 132.741L113.179 134.09L114.211 134.318C114.081 134.958 113.494 134.067 113.461 135.003L114.487 134.455C114.081 134.96 115.791 136.384 113.829 136.231L116.25 138.703C116.748 139.286 117.62 137.96 117.901 138.877C117.652 139.372 117.434 138.916 117.029 139.42C117.878 142.173 121.523 139.053 122.633 141.288L122.321 141.318C122.944 141.261 123.443 141.842 123.631 141.665C124.687 140.162 122.641 142.067 122.876 140.799C123.993 139.758 124.093 140.844 124.873 139.986C124.879 140.767 125.718 140.377 126.125 140.651C126.038 141.909 127.353 142.25 126.957 143.539C127.58 143.477 128.947 142.724 129.604 143.286C129.211 144.574 128.704 143.998 128.992 144.91L129.708 144.37C130.104 144.953 129.855 145.054 129.546 145.336C130.045 145.883 130.83 144.898 131.094 145.955L130.128 146.209C130.851 146.449 130.944 146.754 131.571 147.479C131.202 147.829 130.953 147.535 130.857 147.233C130.314 148.539 131.883 147.45 131.984 147.749C132.195 147.416 131.847 146.825 132.683 146.426C132.908 146.875 134.234 146.272 133.748 147.26L132.788 147.509C133.969 147.71 133.931 147.086 134.5 148.128C134.41 148.133 134.279 148.312 134.132 148.427C135.429 148.116 135.382 149.514 136.078 150.319L135.771 150.349C136.282 150.434 136.998 150.029 137.118 150.236C137.042 149.445 137.337 149.374 137.889 148.72C137.445 150.334 139.921 148.361 140.266 149.881C139.903 150.232 139.25 150.46 139.363 149.824C138.004 150.599 137.087 151.477 136.035 151.425C136.626 151.523 137.186 151.779 136.662 152.148L137.738 151.249C137.979 151.431 138.092 151.654 138.256 151.811C138.958 151.263 138.817 150.351 139.717 150.413C140.595 150.626 139.03 151.733 139.55 151.363C140.71 151.705 140.905 150.588 141.336 151.636C141.181 151.648 140.869 151.683 140.896 151.526C141.043 152.445 142.386 152.602 141.385 153.972C141.048 154.168 140.685 154.518 140.58 154.22L140.764 154.043C139.336 154.36 141.484 154.275 140.259 155.193C140.839 154.5 141.451 155.373 141.678 155.817L142.278 154.967C145.522 153.821 140.818 156.385 142.211 157.17C143.398 157.347 142.139 156.705 143.07 156.598C143.429 157.187 142.979 158.023 143.989 158.372C143.905 158.855 143.929 159.637 143.174 160.509C143.92 160.58 144.121 162.129 145.131 161.544C145.062 160.14 143.578 161.724 143.749 159.816L144.755 159.23C145.305 159.84 146.449 160.151 146.578 160.838C146.646 160.598 146.807 160.353 147.023 160.228C148.152 160.725 149.162 160.136 149.746 161.167C149.152 162.022 148.795 161.434 148.385 161.165C148.35 162.272 148.894 161.739 149.483 162.768C148.915 163.467 148.97 162.198 148.274 162.752L149.375 163.414C149.338 163.453 149.297 163.498 149.251 163.548C150.406 162.573 149.852 164.306 150.714 164.509C152.038 165.757 153.617 164.46 155.168 164.259C155.092 164.741 154.889 165.078 154.55 165.277C154.675 164.483 154.379 164.922 153.998 165.105C154.553 165.407 153.983 167.101 153.321 167.314C154.333 167.657 153.6 166.493 154.355 166.553L155.267 167.535C155.674 166.858 155.441 166.417 156.346 166.455C156.916 166.695 157.018 166.997 157.542 167.553C157.206 167.757 156.93 168.578 156.543 168.154C156.616 168.617 157.014 169.036 157.682 168.635C157.544 167.553 159.13 169.076 159.479 167.772L159.617 168.853C159.488 168.712 159.128 169.076 159.024 168.774C158.412 169.797 159.748 168.992 160.034 169.108C160.097 169.473 160.586 170.067 160.33 170.444C160.741 170.384 161.041 171.011 160.729 171.533C161.172 171.63 161.265 170.989 161.601 170.789L162.51 171.767C162.127 172.296 161.008 173.7 160.697 173.744C161.47 173.643 162.108 172.453 162.626 173.016C161.469 173.644 162.719 174.417 161.256 175.091C160.96 176.071 161.901 176.892 162.626 177.114C163.601 176.665 162.456 176.19 163.17 175.464C164.83 176.501 166.78 174.5 167.509 175.802L167.427 175.344C168.467 175.503 168.309 175.53 169.263 175.231C168.243 176.007 167.752 178.429 169.014 179.195C169.527 178.801 169.212 177.751 170.054 177.159L170.896 177.658C170.881 177.78 170.663 177.866 170.462 177.905C171.401 178.144 170.57 180.203 171.735 179.261L171.166 181.23L171.43 180.407C171.931 180.019 172.776 180.522 173.086 180.474C174.281 180.61 174.189 181.254 174.063 182.218C174.279 181.712 174.74 180.539 175.447 180.907C174.092 182.441 176.159 182.562 175.445 183.344C175.696 183.533 175.693 184.385 176.276 183.77L175.402 184.694C176.625 183.403 177.421 184.226 178.281 184.569C176.552 186.26 179.12 185.067 177.97 186.988C179.166 185.857 179.553 187.534 180.58 186.58C181.135 186.967 180.093 188.073 179.882 188.584L180.518 188.326C180.277 189.129 181.163 190.042 181.393 190.935L182.863 190.293L182.634 190.962C182.958 190.755 183.54 190.97 183.615 190.326L183.846 190.637C184.895 189.454 184.532 190.652 185.543 190.633C185.512 190.939 185.232 191.198 184.97 191.252C185.247 191.509 184.599 192.022 184.415 192.56C184.475 192.078 187.279 191.282 186.967 190.076C187.33 189.54 188.085 189.565 188.182 190.023L187.437 191.253L188.74 190.399C189.315 190.616 188.918 191.472 189.17 191.901C188.749 191.657 186.596 193.293 187.566 194.077C186.95 193.792 186.196 194.187 185.747 194.193C185.906 194.405 185.917 194.594 185.222 194.793C186.247 195.09 186.031 194.338 186.88 194.828C186.022 195.764 185.965 196.252 186.325 197.136L186.446 196.011C186.569 195.912 186.673 195.854 186.758 195.829C186.665 195.568 186.742 195.371 187.018 194.965C187.156 195.098 188.88 194.486 188.506 195.181C189.044 193.034 190.772 195.105 191.069 193.787C191.39 193.576 191.947 193.955 191.591 194.488C190.365 194.702 191.123 195.993 190.455 196.591C190.918 196.505 190.578 195.454 191.195 195.349C191.614 195.595 191.378 196.427 191.326 196.908L191.021 196.961L191.219 197.882C191.716 197.475 191.362 196.587 192.091 196.777C192.058 197.099 192.787 197.29 192.447 197.666C191.642 198.127 191.081 199.173 190.5 198.96C190.927 199.205 192.188 200.094 192.475 198.772L192.886 199.181C192.952 198.532 192.802 197.129 193.789 197.746L193.62 197.937L194.843 197.716L194.694 198.447C194.892 198.192 195.177 198.044 195.393 198.248C195.21 198.592 195.332 198.886 194.991 199.265C195.701 199.764 196.057 199.22 196.378 199.006C196.808 199.241 196.78 199.563 196.13 199.999C196.535 200.55 197.533 201.153 197.458 201.962C198.505 202.08 197.485 201.641 198.43 201.299C197.618 203.512 200.159 203.821 201.451 204.517C202.361 202.757 201.895 204.596 203.205 203.385C202.58 203.664 203.325 205.426 202.006 205.05L202.729 205.382C202.472 206.55 201.241 205.198 200.945 206.844C201.658 207.345 203.422 206.042 203.767 207.249C202.648 208.108 204.658 207.391 203.521 208.413C203.048 208.668 202.922 208.369 202.63 208.271L202.601 208.596C203.829 210.112 204.036 207.675 205.392 207.564C206.396 208.159 205.427 208.993 205.077 209.542C205.05 209.867 205.635 210.068 206.093 209.979C205.026 210.19 205.616 208.475 206.405 207.999C205.827 209.553 207.655 209.186 208.279 208.899C208.027 206.554 207.443 208.112 207.347 205.736C206.876 205.991 206.03 207.116 205.671 206.072C206.555 205.897 206.126 205.434 206.141 205.151C205.776 205.899 205.433 205.006 205.005 205.091C205.215 204.415 206.599 203.98 206.076 203.13L204.753 204.507C204.647 204.049 205.743 203.516 204.855 203.376C205.8 202.867 205.719 202.091 206.726 202.523C206.765 200.455 204.684 201.983 203.49 201.9C203.641 201.872 203.809 201.681 203.965 201.645C203.49 201.9 203.214 201.638 202.919 201.541C202.69 200.794 203.854 201.195 204.052 200.682L203.211 200.057C203.233 199.995 203.251 199.966 203.275 199.934C202.898 199.963 202.588 199.93 202.81 199.501C203.434 199.222 203.928 198.806 204.4 198.554L202.72 198.888C203.206 198.477 202.702 197.473 203.592 197.612L202.169 196.791L202.874 195.706C202.43 195.637 202.262 195.827 202.523 196.242C202.282 195.664 199.198 196.424 201.027 194.652C199.378 194.655 199.276 194.056 197.687 193.559C199.339 193.42 197.612 191.518 198.913 191.915C198.714 191.004 197.712 191.975 197.135 191.762C197.072 190.988 198.06 190.177 198.805 190.196L197.908 190.198L198.081 190.011L197.164 190.177C197.12 189.238 197.884 189.102 197.5 188.54L196.666 189.319L196.754 188.52C196.547 189.029 196.106 188.952 195.687 188.711L195.858 188.522L195.281 188.311C196.157 188.155 195.038 187.779 195.759 187.328C195.42 186.962 195.402 186.968 194.594 186.545L194.213 187.241C192.894 187 194.918 186.326 194.246 185.663L193.716 186.385C193.656 184.354 191.42 185.534 191.284 184.144C191.854 184.36 192.415 183.474 192.241 183.661C191.375 183.347 190.463 182.249 189.083 182.488C189.677 181.291 189.87 180.946 189.552 179.906C188.996 179.531 188.841 179.562 188.187 179.989C188.02 179.193 186.622 178.959 187.218 178.221C186.617 178.686 186.881 177.721 186.203 177.961L186.4 177.62L185.857 178.334C186.311 176.058 183.674 177.896 183.951 175.809L184.257 175.761L183.665 175.701C183.864 175.355 184.169 175.305 184.521 174.935L182.946 173.306L182.835 174.108C182.421 173.86 181.61 174.298 181.567 173.522C183.123 173.119 181.04 172.983 181.613 172.108L182.206 172.167C181.658 171.788 181.658 171.788 181.106 172.499C180.259 172.161 181.793 170.826 180.566 171.021L180.959 171.429C180.74 171.93 179.951 172.211 179.685 171.942C179.709 171.779 179.774 171.302 180.062 171.411C179.333 171.214 178.88 170.192 178.421 170.262C178.332 169.809 178.844 169.413 179.148 169.366C177.549 168.99 178.776 168.801 177.177 168.419L177.532 168.056L176.758 168.178L176.944 166.9L176.697 167.56C176.282 167.313 175.822 167.381 175.604 166.792L176.269 166.382C174.992 165.8 175.955 164.409 174.32 164.327C174.348 164.166 174.653 164.122 174.807 164.102C173.149 164.179 175.052 162.497 173.216 162.762C173.439 162.623 173.553 162.302 173.732 162.174L173.008 162.17L173.72 161.443L172.392 162.256L172.851 161.252L172.369 161.472C173.255 159.633 171.67 160.167 172.075 158.55L171.31 159.595C168.059 160.205 168.974 155.399 166.386 154.673L167.103 153.955L165.565 154.161C165.719 153.208 166.389 153.739 166.62 153.243C165.463 152.933 165.278 154.046 164.177 153.419C164.178 152.486 164.846 153.019 165.31 152.954C164.124 152.536 162.483 151.791 162.285 150.799C162.178 150.887 162.019 150.984 162.01 151.056C161.142 150.855 160.718 149.815 160.06 149.273C160.394 148.945 160.597 149.036 160.816 149.113C160.637 148.856 160.556 148.332 160.042 148.498L160.872 148.08C160.522 147.5 159.067 147.213 159.667 146.36C159.455 146.701 158.91 147.234 158.534 146.81C159.373 145.462 156.978 146.224 156.897 144.989C157.228 144.794 157.761 145.196 157.64 145.052C157.593 144.441 156.801 144.688 156.183 144.762L156.7 144.391L154.585 143.559C155.428 142.215 152.99 142.35 153.874 141.628C153.368 141.066 153.859 142.562 153.047 142.032C153.311 141.386 152.207 141.667 152.934 140.96L153.09 140.944L152.556 140.541L153.542 140.112C152.981 139.872 151.992 140.3 151.447 140.829C151.438 140.053 150.568 139.847 151.015 139.021L151.327 138.987C149.947 138.223 151.414 135.251 149.386 135.633C149.42 135.469 149.602 135.296 149.726 135.435L149.102 134.727L149.782 134.345L147.873 134.082L148.239 133.732C147.653 132.861 146.325 131.922 145.276 131.102L145.585 131.068C144.011 130.617 144.934 129.741 143.792 129.4C143.912 129.33 143.974 129.318 144.022 129.324L143.331 128.672L143.825 128.465C142.56 128.754 143.392 126.034 143.054 126.999C142.434 127.064 141.537 127 141.015 127.363C140.239 126.673 141.292 126.718 141.138 125.96C140.643 125.397 139.933 125.928 139.531 124.89L139.903 124.542C139.502 124.273 139.036 124.325 138.512 123.914L138.823 123.879C137.303 123.881 138.931 121.857 136.769 122.836C136.742 122.22 135.915 121.832 136.662 121.139C135.253 120.648 134.306 120.118 133.081 119.455C134.111 118.12 132.803 119.325 132.911 118.073L132.321 118.747C130.911 117.483 130.962 114.375 129.247 113.148L129.844 112.474L128.852 112.87C128.026 111.645 126.996 110.264 126.039 109.071C126.248 109.095 126.452 109.124 126.614 109.094C126.503 108.974 126.141 109 125.882 108.873C125.807 108.779 125.727 108.677 125.653 108.586C125.64 108.544 125.607 108.526 125.602 108.473C126.711 108.151 127.762 107.019 128.671 106.199C128.845 106.383 129.179 106.588 129.196 106.753C128.917 105.113 130.488 106.782 131.213 105.607C133.411 102.718 135.712 98.4255 138.511 96.1605C138.094 94.652 138.859 93.8095 139.445 92.7842L140.803 93.965L141.063 92.8808C141.719 92.988 140.788 93.6388 141.75 93.6313L141.211 92.5879C141.72 92.988 143.225 91.1459 143.019 93.1964L145.614 90.5706C146.224 90.027 144.892 89.1693 145.837 88.8401C146.337 89.0817 145.863 89.3263 146.368 89.731C149.215 88.7555 146.1 85.0123 148.481 83.8179L148.496 84.1395C148.467 83.4963 149.095 82.9663 148.922 82.776C147.419 81.713 149.287 83.7937 147.987 83.5748C146.964 82.4423 148.095 82.3124 147.248 81.5227C148.056 81.4985 147.698 80.6363 148.004 80.209C149.302 80.2724 149.726 78.8968 151.038 79.2849C151.009 78.6386 150.305 77.2298 150.925 76.5322C152.232 76.9188 151.609 77.4578 152.567 77.1422L152.05 76.4054C152.675 75.9811 152.765 76.2408 153.036 76.5594C153.629 76.0294 152.66 75.2261 153.767 74.9331L153.97 75.9388C154.259 75.1793 154.579 75.0781 155.363 74.4137C155.701 74.7942 155.384 75.0584 155.066 75.1641C156.376 75.7153 155.351 74.0875 155.665 73.9803C155.336 73.7629 154.706 74.1358 154.348 73.2661C154.822 73.0245 154.288 71.6429 155.272 72.1381L155.467 73.1408C155.748 71.9011 155.104 71.9479 156.211 71.3393C156.211 71.433 156.387 71.5689 156.495 71.7214C156.258 70.3639 157.692 70.3971 158.561 69.6572L158.571 69.9804C158.691 69.4413 158.325 68.6939 158.544 68.5655C157.728 68.6546 157.676 68.3435 157.042 67.7697C158.67 68.2227 156.802 65.6195 158.423 65.2783C158.754 65.6588 158.936 66.3368 158.285 66.216C158.972 67.6278 159.812 68.5912 159.688 69.695C159.826 69.0729 160.129 68.4825 160.471 69.0306L159.628 67.9102C159.836 67.661 160.078 67.5463 160.253 67.3786C159.745 66.6463 158.784 66.7867 158.925 65.8521C159.224 64.943 160.237 66.5768 159.898 66.0317C160.354 64.8298 159.212 64.6169 160.337 64.1805C160.336 64.3421 160.345 64.6652 160.184 64.6365C161.152 64.4916 161.436 63.0963 162.764 64.1533C162.936 64.5067 163.268 64.8872 162.948 64.9929L162.782 64.7996C162.984 66.2869 163.086 64.0552 163.928 65.3387C163.263 64.7271 164.217 64.1005 164.698 63.8725L163.872 63.2368C162.981 59.8423 165.206 64.7755 166.14 63.3395C166.429 62.1058 165.653 63.4074 165.628 62.4349C166.267 62.0695 167.088 62.5527 167.541 61.5078C168.032 61.6045 168.837 61.5939 169.663 62.3972C169.804 61.6211 171.411 61.4444 170.903 60.3783C169.457 60.4221 170.945 62.0016 169.002 61.7857L168.492 60.7241C169.17 60.1624 169.598 58.9726 170.315 58.8518C170.077 58.7763 169.84 58.6026 169.732 58.3746C170.35 57.2028 169.844 56.1308 170.96 55.5404C171.778 56.1821 171.14 56.5445 170.825 56.9688C171.957 57.0292 171.463 56.4479 172.575 55.8514C173.234 56.4645 171.943 56.3769 172.441 57.1183L173.226 55.9798C173.264 56.019 173.304 56.0643 173.351 56.1142C172.468 54.879 174.185 55.5011 174.477 54.6026C175.919 53.2844 174.768 51.6008 174.75 49.9821C175.24 50.0833 175.564 50.3067 175.729 50.6676C174.923 50.503 175.34 50.8292 175.484 51.2324C175.865 50.6707 177.547 51.3381 177.685 52.0342C178.162 51.0044 176.871 51.7065 177.025 50.9289L178.149 50.0289C177.502 49.5759 177.018 49.7964 177.168 48.8587C177.487 48.2788 177.813 48.1852 178.451 47.6673C178.619 48.0251 179.429 48.3528 178.944 48.7348C179.43 48.6805 179.91 48.2894 179.582 47.5752C178.449 47.6673 180.22 46.0909 178.922 45.6605L180.053 45.5699C179.892 45.6968 180.22 46.0909 179.895 46.183C180.868 46.8715 180.212 45.4416 180.368 45.1456C180.752 45.0973 181.426 44.6186 181.778 44.907C181.769 44.4752 182.452 44.1958 182.947 44.5476C183.103 44.0916 182.461 43.9603 182.298 43.5979L183.42 42.6994C183.911 43.1283 185.201 44.3755 185.204 44.7017C185.202 43.8908 184.07 43.1569 184.713 42.6466C185.202 43.8893 186.157 42.6285 186.652 44.1958C187.612 44.5612 188.571 43.6296 188.892 42.8852C188.565 41.8387 187.93 43.0059 187.284 42.2162C188.563 40.5447 186.779 38.3597 188.25 37.718L187.764 37.7678C188.092 36.7078 188.095 36.8739 187.939 35.8637C188.58 36.9766 191.003 37.6802 191.989 36.4451C191.666 35.8818 190.533 36.1204 190.059 35.2023L190.71 34.3718C190.834 34.3975 190.888 34.6301 190.895 34.8399C191.294 33.8871 193.276 34.923 192.499 33.6365L194.427 34.396L193.626 34.0502C193.309 33.4976 193.965 32.6656 193.966 32.3394C194.304 31.1118 194.952 31.2628 195.916 31.4802C195.434 31.2099 194.309 30.6286 194.807 29.9249C196.148 31.4712 196.621 29.3315 197.299 30.1454C197.534 29.9008 198.402 29.9853 197.875 29.3194L198.669 30.316C197.56 28.9238 198.535 28.1688 199.035 27.3021C200.456 29.2666 199.689 26.4731 201.439 27.8578C200.498 26.4988 202.267 26.2572 201.481 25.09C201.976 24.5494 202.921 25.7604 203.4 26.0352L203.259 25.3527C204.037 25.697 205.149 24.9042 206.106 24.7819L205.74 23.1949L206.379 23.5135C206.232 23.1557 206.568 22.5864 205.925 22.4278L206.289 22.2285C205.29 21.0024 206.442 21.5264 206.63 20.483C206.938 20.554 207.145 20.8756 207.146 21.1504C207.466 20.8982 207.857 21.6291 208.369 21.8888C207.887 21.768 207.652 18.7767 206.355 18.9443C205.881 18.5019 206.066 17.7258 206.555 17.682L207.656 18.6076L207.056 17.1519C207.4 16.5842 208.189 17.1051 208.681 16.8998C208.342 17.3045 209.562 19.7386 210.56 18.8416C210.143 19.4396 210.389 20.2686 210.303 20.7306C210.551 20.5947 210.744 20.6098 210.804 21.3497C211.316 20.3365 210.509 20.4573 211.179 19.6495C211.954 20.6581 212.435 20.782 213.403 20.5328L212.29 20.255C212.213 20.1161 212.177 19.9998 212.168 19.9092C211.885 19.9696 211.701 19.8639 211.346 19.5257C211.508 19.4033 211.247 17.5415 211.874 18.0202C209.808 17.1791 212.276 15.6661 211.002 15.1814C210.855 14.8205 211.361 14.292 211.826 14.733C211.781 16.0331 213.251 15.4215 213.711 16.1946C213.721 15.7039 212.588 15.9108 212.612 15.2599C212.951 14.8583 213.742 15.2162 214.216 15.3385L214.206 15.6616L215.176 15.5831C214.872 15.0108 213.9 15.2554 214.249 14.5246C214.566 14.6046 214.917 13.8738 215.223 14.2784C215.514 15.1769 216.447 15.9062 216.11 16.477C216.446 16.0708 217.609 14.8885 216.342 14.4038L216.842 14.0353C216.204 13.8738 214.758 13.8345 215.595 12.8938L215.75 13.0976L215.796 11.7945L216.506 12.0618C216.291 11.8202 216.21 11.5046 216.473 11.3204C216.78 11.562 217.111 11.488 217.417 11.8972C218.096 11.2615 217.63 10.81 217.489 10.4476C217.835 10.049 218.156 10.1335 218.441 10.8659C219.102 10.5488 219.961 9.63675 220.763 9.85268C221.141 8.80777 220.441 9.76963 220.33 8.74888C222.372 9.95687 223.31 7.43217 224.343 6.23324C222.8 4.9875 224.533 5.79383 223.649 4.23402C223.772 4.92257 225.735 4.47713 225.019 5.76062L225.537 5.07961C226.643 5.55525 224.973 6.56846 226.551 7.17094C227.231 6.53826 226.379 4.49072 227.674 4.35935C228.244 5.667 228.046 3.47147 228.773 4.82744C228.905 5.36046 228.577 5.43294 228.404 5.7138L228.721 5.8029C230.545 4.83197 228.169 4.16154 228.412 2.74819C229.267 1.8271 229.843 2.98073 230.301 3.44278C230.616 3.53187 230.968 2.97015 231 2.48243C230.932 3.61945 229.38 2.68779 229.112 1.78783C230.508 2.6742 230.622 0.724804 230.505 0.0241702C228.103 -0.155518 229.501 0.736887 227.102 0.39563C227.231 0.930166 228.134 2.00829 226.995 2.18496C227.052 1.24273 226.476 1.59909 226.197 1.53265C226.85 2.04453 225.866 2.23479 225.839 2.69081C225.213 2.35257 225.142 0.848626 224.148 1.23518L225.184 2.84483C224.697 2.87201 224.446 1.64892 224.073 2.53679C223.808 1.47225 223.004 1.4194 223.706 0.456031C221.628 0.0513546 222.617 2.47035 222.225 3.67985C222.236 3.51828 222.086 3.31292 222.09 3.14682C222.226 3.67985 221.888 3.91691 221.714 4.2023C220.898 4.308 221.606 3.18156 221.138 2.88862L220.284 3.64512C220.227 3.61039 220.201 3.58775 220.177 3.55755C220.108 3.94863 219.994 4.26271 219.616 3.96071C219.495 3.27216 219.201 2.69383 219.067 2.16382L218.968 3.94863C218.676 3.37785 217.519 3.72968 217.894 2.83727L216.683 4.16304L215.756 3.26007C215.57 3.70552 215.72 3.90937 216.213 3.71005C215.555 3.86558 215.546 7.14678 214.194 4.9875C213.783 6.68624 213.113 6.66358 212.236 8.24756C212.471 6.49446 210.147 8.05579 210.846 6.7421C209.874 6.8327 210.632 8.012 210.287 8.58579C209.484 8.55106 208.882 7.41103 209.073 6.63036L208.869 7.5726L208.717 7.36724L208.678 8.35024C207.71 8.27474 207.745 7.45632 207.082 7.78852L207.688 8.76247L206.891 8.56919C207.364 8.85005 207.187 9.30153 206.846 9.70923L206.692 9.50689L206.345 10.0837C206.382 9.14752 205.746 10.2725 205.445 9.46159C204.995 9.77114 204.995 9.79076 204.379 10.585L205.01 11.0682C204.469 12.4136 204.228 10.2196 203.395 10.8417L204.019 11.482C201.914 11.3008 202.639 13.7726 201.176 13.7484C201.523 13.1792 200.73 12.4921 200.886 12.696C200.372 13.5597 199.036 14.3842 198.988 15.8428C197.874 15.0893 197.557 14.8492 196.406 15.0652C195.896 15.6012 195.895 15.7658 196.199 16.4906C195.324 16.5661 194.804 18.0096 194.167 17.3241C194.532 17.999 193.591 17.6367 193.71 18.3735L193.396 18.1365L194.028 18.7722C191.774 18.0987 193.173 21.0387 191.077 20.569L191.084 20.2429L190.912 20.8635C190.592 20.6249 190.596 20.2988 190.28 19.8971L188.304 21.4282L189.113 21.6079C188.779 22.0247 189.086 22.911 188.275 22.8959C188.14 21.2274 187.621 23.4063 186.82 22.7374L186.989 22.1183C186.496 22.6649 186.496 22.6649 187.134 23.3006C186.631 24.1643 185.521 22.4505 185.501 23.7551L185.995 23.3731C186.476 23.6419 186.626 24.4905 186.299 24.7487C186.134 24.7109 185.65 24.6068 185.815 24.3138C185.48 25.0643 184.337 25.4629 184.328 25.9491C183.84 26.008 183.519 25.4448 183.525 25.1217C182.85 26.7706 182.869 25.472 182.19 27.1179L181.871 26.7207L181.864 27.5392L180.562 27.2553L181.21 27.5588C180.877 27.9755 180.871 28.4602 180.217 28.6475L179.903 27.9257C179.067 29.2137 177.775 28.122 177.447 29.863C177.283 29.8253 177.285 29.4991 177.289 29.3345C177.118 31.0997 175.666 29.0038 175.663 30.9668C175.553 30.7237 175.238 30.5878 175.13 30.393L175.016 31.1601L174.369 30.3749L175.015 31.8185L174.041 31.29L174.197 31.8109C172.419 30.7962 172.738 32.498 171.113 32.0072L172.087 32.8588C172.252 36.3197 167.371 35.1736 166.236 37.8856L165.584 37.1064V38.7327C164.606 38.5409 165.257 37.8524 164.768 37.5942C164.28 38.8037 165.424 39.0302 164.614 40.1702C163.634 40.1415 164.286 39.456 164.282 38.9652C163.68 40.2034 162.659 41.887 161.623 42.106C161.701 42.2208 161.782 42.3899 161.857 42.4005C161.548 43.3246 160.42 43.7655 159.782 44.4616C159.481 44.1037 159.598 43.8878 159.703 43.6552C159.416 43.844 158.859 43.9271 158.973 44.4737L158.633 43.5888C157.988 43.9588 157.526 45.5035 156.703 44.8632C157.035 45.0897 157.53 45.6711 157.045 46.0682C155.731 45.1728 156.261 47.7171 154.963 47.7987C154.796 47.4468 155.275 46.8821 155.111 47.012C154.466 47.0603 154.637 47.9013 154.648 48.5567L154.316 48.007L153.218 50.2327Z" fill="#E5203D"/>
</svg>
